name C:\Users\u0101727\Documents\MyRepositories\upper-imu-dc\Results\main_mocap_tracking\Case_9\FLX01_linearAccelerations.mot
datacolumns 4
datarows 100
range 1.010000 2.000000
endheader 
time	radius_imu_x	radius_imu_y	radius_imu_z	
          1.01000000	         -4.15808057	         13.79719221	          0.56339584	
          1.02000000	         -3.14714639	         13.94988392	          0.68470709	
          1.03000000	         -2.29693751	         14.08197379	          0.92458222	
          1.04000000	         -1.68860482	         14.15747322	          1.20938201	
          1.05000000	         -1.34105102	         14.16891818	          1.50846680	
          1.06000000	         -1.26039254	         14.11755150	          1.79213739	
          1.07000000	         -1.40872713	         14.01995578	          2.04516813	
          1.08000000	         -1.70788878	         13.90530091	          2.26798349	
          1.09000000	         -2.03119785	         13.80601721	          2.47858905	
          1.10000000	         -2.25058322	         13.75356071	          2.69529238	
          1.11000000	         -2.21876194	         13.70256032	          2.89846698	
          1.12000000	         -1.84758449	         13.57720303	          3.07158604	
          1.13000000	         -1.15012602	         13.48656029	          3.30344259	
          1.14000000	         -0.16402206	         13.36933475	          3.57185864	
          1.15000000	          1.02607413	         13.18875039	          3.86533452	
          1.16000000	          2.32053321	         12.91066906	          4.16692310	
          1.17000000	          3.62092650	         12.51582999	          4.45976426	
          1.18000000	          4.85229785	         11.99913512	          4.72993239	
          1.19000000	          5.97890392	         11.36931849	          4.96992389	
          1.20000000	          7.01019325	         10.64690453	          5.18068351	
          1.21000000	          7.99572103	          9.85921483	          5.37016389	
          1.22000000	          9.00369151	          9.03085176	          5.54969171	
          1.23000000	         10.08594320	          8.17943845	          5.73247937	
          1.24000000	         11.24493541	          7.31184074	          5.92536399	
          1.25000000	         12.41789054	          6.42875783	          6.13160849	
          1.26000000	         13.48988724	          5.54070896	          6.35636575	
          1.27000000	         14.34657374	          4.68376197	          6.60959754	
          1.28000000	         14.93067869	          3.72559249	          6.92510736	
          1.29000000	         15.12902632	          3.53334084	          7.79179525	
          1.30000000	         14.97017754	          2.78778767	          8.56984198	
          1.31000000	         14.46445208	          1.95952696	          8.99514138	
          1.32000000	         13.55164914	          0.83938997	          9.50438450	
          1.33000000	         12.23686114	          1.04520218	         10.30220586	
          1.34000000	         10.74718373	          2.73405756	         11.18724440	
          1.35000000	          8.93513597	          4.05845826	         11.57570967	
          1.36000000	          6.95854403	          4.88875127	         11.48590961	
          1.37000000	          4.98337005	          5.19616437	         11.02303566	
          1.38000000	          3.13452810	          5.11117044	         10.34140738	
          1.39000000	          1.52045708	          4.78280005	          9.58690919	
          1.40000000	          0.22452557	          4.33665841	          8.87288089	
          1.41000000	         -0.71112544	          3.86563898	          8.27569514	
          1.42000000	         -1.30756209	          3.43893185	          7.83325104	
          1.43000000	         -1.65088669	          3.08658092	          7.53896249	
          1.44000000	         -1.91723221	          2.78266217	          7.39043711	
          1.45000000	         -2.16620743	          2.62487452	          7.33861211	
          1.46000000	         -2.52298409	          2.61074388	          7.38253340	
          1.47000000	         -2.90885066	          2.61789360	          7.42113837	
          1.48000000	         -3.49286795	          2.49897344	          7.52693728	
          1.49000000	         -4.04875362	          2.38261835	          7.59568303	
          1.50000000	         -4.54557060	          2.24658111	          7.67007096	
          1.51000000	         -4.95453803	          2.09986080	          7.74840092	
          1.52000000	         -5.25872226	          1.93882347	          7.83256111	
          1.53000000	         -5.46149899	          1.76407108	          7.92186366	
          1.54000000	         -5.57546925	          1.58102290	          8.01362021	
          1.55000000	         -5.60525546	          1.39890419	          8.11129844	
          1.56000000	         -5.54230427	          1.22097689	          8.21440021	
          1.57000000	         -5.38290064	          1.05928454	          8.32430784	
          1.58000000	         -5.14218762	          0.92016393	          8.43799217	
          1.59000000	         -4.84928222	          0.80206315	          8.55080100	
          1.60000000	         -4.53759379	          0.69884366	          8.65702464	
          1.61000000	         -4.24156631	          0.60165455	          8.75126181	
          1.62000000	         -4.00217698	          0.50384719	          8.82845799	
          1.63000000	         -3.85430999	          0.40368778	          8.88502283	
          1.64000000	         -3.80495813	          0.30523431	          8.92206451	
          1.65000000	         -3.82256886	          0.21622950	          8.94650719	
          1.66000000	         -3.84886813	          0.14358211	          8.96897821	
          1.67000000	         -3.83138976	          0.08993450	          8.99816724	
          1.68000000	         -3.75704303	          0.05092764	          9.03603417	
          1.69000000	         -3.66199676	          0.01643757	          9.07585216	
          1.70000000	         -3.60590042	         -0.02522726	          9.10580590	
          1.71000000	         -3.62958706	         -0.08317683	          9.11573944	
          1.72000000	         -3.73081427	         -0.16188435	          9.10211977	
          1.73000000	         -3.87019158	         -0.26163229	          9.06841739	
          1.74000000	         -3.99697268	         -0.38058879	          9.02166488	
          1.75000000	         -4.08287261	         -0.51704925	          8.96704401	
          1.76000000	         -4.14462364	         -0.67047485	          8.90384230	
          1.77000000	         -4.23357029	         -0.84059719	          8.82647734	
          1.78000000	         -4.39997959	         -1.02568874	          8.72965909	
          1.79000000	         -4.66367602	         -1.22096643	          8.61339779	
          1.80000000	         -5.00660041	         -1.41855222	          8.48374204	
          1.81000000	         -5.38437714	         -1.60915371	          8.34980776	
          1.82000000	         -5.74968464	         -1.78485652	          8.21909330	
          1.83000000	         -6.07153926	         -1.94155904	          8.09477876	
          1.84000000	         -6.33346400	         -2.07927894	          7.97736067	
          1.85000000	         -6.51909532	         -2.20032992	          7.86800957	
          1.86000000	         -6.60855162	         -2.30714990	          7.76939270	
          1.87000000	         -6.58987805	         -2.40161651	          7.68364456	
          1.88000000	         -6.47209118	         -2.48578925	          7.61012762	
          1.89000000	         -6.28645401	         -2.56283417	          7.54522790	
          1.90000000	         -6.07117882	         -2.63710769	          7.48480458	
          1.91000000	         -5.85304272	         -2.71358752	          7.42691392	
          1.92000000	         -5.64548299	         -2.79744365	          7.37179153	
          1.93000000	         -5.45913171	         -2.89324578	          7.31990504	
          1.94000000	         -5.30445305	         -3.00345644	          7.27114524	
          1.95000000	         -5.17740502	         -3.12645805	          7.22695118	
          1.96000000	         -5.04710950	         -3.25510571	          7.19242417	
          1.97000000	         -4.86404388	         -3.37878091	          7.17443507	
          1.98000000	         -4.59139004	         -3.48667750	          7.17768545	
          1.99000000	         -4.22525693	         -3.57346171	          7.19578653	
          2.00000000	         -3.81473056	         -3.64000015	          7.21785297	
